:SAMPLES-PER-SECOND 30
:FULLY-SPECIFIED
:DEGREES
257
root  20.0795 30.9424 17.3957 -175.83 -4.27838 165.597
RightUpLeg  -19.9932 -6.78518 -49.0705
RightLeg  50.0971 1.86394 2.02907
RightFoot  -21.5735 4.87807 52.388
RightToes  2.32829e-010 0 -3.6325e-017
Spine  22.7593 4.87296 35.91
Spine1  0.0990883 18.8893 -37.9189
HEad  -3.16309 -2.25715 -3.23361
LeftShoulder1  1.78848 -2.28728 -24.6748
LeftArm  19.8378 17.9262 -41.8238
LeftForeArm  36.1392 -74.9203 -43.2497
LeftHand  -1.62722 -4.7049 18.8514
RightShoulder  -0.101182 -2.52057 -21.8184
RightArm  -50.9997 52.3022 3.66953
RightForeArm  9.91611 34.7383 7.22043
RightHand  -2.48776 6.35533 -24.534
LeftUpLeg  -35.2246 -9.05532 21.6017
LeftLeg  43.3151 8.79615 9.15908
LeftFoot  0.178005 2.76611 -26.9771
LeftToes  -5.54824e-011 -8.71001e-011 8.3852e-012
258
root  20.4537 30.979 17.9738 -175.526 -7.30042 165.113
RightUpLeg  -19.4876 -6.30687 -48.7515
RightLeg  51.5103 0.289133 0.0234739
RightFoot  -21.6151 4.87287 52.1414
RightToes  2.32829e-010 0 -3.6325e-017
Spine  22.4744 4.60537 34.768
Spine1  0.346242 17.3429 -32.8793
HEad  -4.78037 -1.68483 -2.8584
LeftShoulder1  1.92727 -2.76508 -24.5446
LeftArm  20.7836 20.99 -44.7569
LeftForeArm  44.1239 -76.6119 -50.4902
LeftHand  -1.60315 -4.95238 18.164
RightShoulder  0.147205 -4.86407 -21.6076
RightArm  -55.3438 57.8621 6.81133
RightForeArm  14.8624 41.2126 8.86381
RightHand  -2.39502 6.50707 -23.3668
LeftUpLeg  -36.7972 -10.8574 21.2434
LeftLeg  42.5341 8.97058 9.10287
LeftFoot  1.83925 2.95607 -25.3056
LeftToes  -5.54824e-011 -8.71001e-011 8.3852e-012
259
root  20.6747 31.1297 18.5184 -175.631 -8.99841 164.745
RightUpLeg  -19.329 -5.28684 -48.4422
RightLeg  52.0681 -1.25164 -2.09162
RightFoot  -20.3764 4.28024 52.2325
RightToes  2.32829e-010 0 -3.6325e-017
Spine  21.8878 3.75359 31.5338
Spine1  1.38224 14.976 -28.0372
HEad  -7.19251 -1.0698 -3.37198
LeftShoulder1  1.93515 -3.00286 -23.4796
LeftArm  20.2512 22.5257 -46.4436
LeftForeArm  48.2941 -77.355 -54.9876
LeftHand  -1.53206 -4.49096 18.1597
RightShoulder  0.155113 -5.21289 -19.4095
RightArm  -47.9634 57.0579 9.91989
RightForeArm  18.9406 49.4494 11.7352
RightHand  -2.24996 6.51317 -21.9896
LeftUpLeg  -37.0509 -11.1525 20.6022
LeftLeg  41.7012 8.34699 8.2728
LeftFoot  3.3135 3.15142 -24.3293
LeftToes  -5.54824e-011 -8.71001e-011 8.3852e-012
260
root  20.7049 31.4132 18.9537 -175.423 -9.04949 165.134
RightUpLeg  -19.8856 -4.47322 -47.5232
RightLeg  51.0142 -2.51363 -3.68314
RightFoot  -18.4836 3.43163 53.0876
RightToes  2.32829e-010 0 -3.6325e-017
Spine  20.9124 3.108 29.0096
Spine1  2.88148 13.4171 -25.2766
HEad  -8.43758 -0.0738604 -3.90039
LeftShoulder1  1.7846 -2.81375 -21.9063
LeftArm  20.9409 21.1006 -46.8408
LeftForeArm  46.0215 -76.8456 -51.5231
LeftHand  -1.3581 -3.93767 17.0639
RightShoulder  0.074075 -4.66641 -16.5256
RightArm  -35.8773 51.3895 14.2335
RightForeArm  24.9537 57.698 15.7263
RightHand  -1.99686 6.31667 -19.9177
LeftUpLeg  -36.8113 -10.034 20.2843
LeftLeg  41.8389 7.90404 7.90224
LeftFoot  3.99627 3.25157 -24.0089
LeftToes  -5.54824e-011 -8.71001e-011 8.3852e-012
261
root  20.5546 31.8029 19.2742 -175.233 -8.46919 166.373
RightUpLeg  -20.036 -3.56812 -45.8268
RightLeg  48.3425 -3.85077 -4.95366
RightFoot  -16.5814 2.51541 53.4079
RightToes  2.32829e-010 0 -3.6325e-017
Spine  19.9881 2.77598 26.1583
Spine1  4.08463 11.9351 -21.9707
HEad  -8.83529 1.93388 -4.59245
LeftShoulder1  1.66397 -2.53418 -21.1757
LeftArm  21.442 19.0818 -46.5176
LeftForeArm  44.1466 -76.2123 -47.5922
LeftHand  -1.15645 -3.62013 15.1048
RightShoulder  0.032756 -4.47696 -13.0883
RightArm  -25.06 44.2333 21.6153
RightForeArm  28.7694 63.8679 20.4314
RightHand  -1.70077 5.87133 -17.7001
LeftUpLeg  -36.1866 -8.316 20.3095
LeftLeg  42.5634 6.89743 7.13003
LeftFoot  2.80438 3.02808 -24.2184
LeftToes  -5.54824e-011 -8.71001e-011 8.3852e-012
262
root  20.1973 32.2634 19.5338 -175.405 -8.32353 167.884
RightUpLeg  -18.7488 -3.20701 -44.1502
RightLeg  44.3012 -5.18817 -5.69778
RightFoot  -14.2942 1.36175 52.7486
RightToes  2.32829e-010 0 -3.6325e-017
Spine  18.9528 2.22864 21.9679
Spine1  5.71729 9.57972 -16.8678
HEad  -10.098 4.1194 -5.54984
LeftShoulder1  1.51998 -2.03835 -21.0224
LeftArm  20.6721 17.807 -46.6902
LeftForeArm  45.1502 -76.3012 -47.8102
LeftHand  -1.0579 -3.45877 14.0933
RightShoulder  0.00452831 -3.78654 -8.64142
RightArm  -18.0356 36.4609 28.9399
RightForeArm  27.2347 67.3401 25.0892
RightHand  -1.37208 5.17314 -15.2759
LeftUpLeg  -35.194 -6.99075 19.9565
LeftLeg  43.3863 4.13747 4.57417
LeftFoot  -1.12811 2.24861 -24.7623
LeftToes  -5.54824e-011 -8.71001e-011 8.3852e-012
263
root  19.5476 32.8015 19.7401 -175.545 -8.63502 169.358
RightUpLeg  -16.0868 -4.90727 -43.0791
RightLeg  38.4113 -6.18036 -5.5025
RightFoot  -10.5294 -0.471184 52.0731
RightToes  2.32829e-010 0 -3.6325e-017
Spine  17.3396 1.36177 18.0732
Spine1  8.22732 6.98214 -12.1857
HEad  -12.1324 5.39324 -6.29666
LeftShoulder1  1.23301 -1.06218 -20.5584
LeftArm  20.4475 15.9737 -47.5888
LeftForeArm  47.9409 -76.8848 -50.8923
LeftHand  -1.05913 -3.37207 14.2379
RightShoulder  0.066532 -2.31992 -3.44438
RightArm  -13.7478 26.9468 33.9641
RightForeArm  27.3409 70.3972 30.7214
RightHand  -1.09147 4.32897 -13.2759
LeftUpLeg  -34.0853 -6.35909 18.8513
LeftLeg  44.5513 0.529683 0.965093
LeftFoot  -6.93636 1.03948 -25.622
LeftToes  -5.54824e-011 -8.71001e-011 8.3852e-012
264
root  18.6159 33.3884 19.8642 -175.181 -8.15276 171.045
RightUpLeg  -13.364 -8.15415 -42.2227
RightLeg  30.4731 -6.74149 -4.49883
RightFoot  -4.71323 -3.22983 51.5791
RightToes  2.32829e-010 0 -3.6325e-017
Spine  15.4136 0.889357 15.4513
Spine1  10.5859 5.31309 -9.17248
HEad  -13.5674 6.1502 -6.82181
LeftShoulder1  0.966149 -0.133713 -20.0958
LeftArm  21.4097 13.3988 -48.7087
LeftForeArm  51.0626 -77.3921 -53.8336
LeftHand  -1.06131 -3.33584 14.3225
RightShoulder  0.224236 -1.29845 2.15521
RightArm  -10.2219 15.9355 37.5363
RightForeArm  33.7137 73.57 38.1987
RightHand  -1.0133 4.04648 -12.691
LeftUpLeg  -32.86 -5.0046 17.3512
LeftLeg  46.2018 -1.2304 -0.937848
LeftFoot  -12.1488 -0.114467 -26.3129
LeftToes  -5.54824e-011 -8.71001e-011 8.3852e-012
265
root  17.5172 33.9288 19.941 -174.525 -6.16897 173.009
RightUpLeg  -11.5753 -10.0724 -41.0692
RightLeg  21.4425 -7.49296 -3.38869
RightFoot  2.85693 -6.65618 50.3282
RightToes  2.32829e-010 0 -3.6325e-017
Spine  13.9692 1.10289 12.5524
Spine1  11.9086 4.32822 -6.31746
HEad  -14.5168 7.39979 -7.5976
LeftShoulder1  0.855579 0.284381 -20.0981
LeftArm  21.8544 11.7666 -50.2714
LeftForeArm  53.1657 -77.6773 -55.6285
LeftHand  -1.03085 -3.23443 14.0809
RightShoulder  0.387344 -0.95208 7.71092
RightArm  -7.86857 5.29326 40.4605
RightForeArm  41.5346 75.8846 46.5533
RightHand  -1.04958 4.12826 -13.0207
LeftUpLeg  -31.6043 -1.8542 15.8822
LeftLeg  47.8539 0.124043 0.597245
LeftFoot  -15.3047 -0.814901 -25.8255
LeftToes  -5.54824e-011 -8.71001e-011 8.3852e-012
266
root  16.3402 34.3369 20.0522 -174.19 -3.58784 174.957
RightUpLeg  -10.3867 -11.7935 -39.1591
RightLeg  12.3344 -7.37687 -3.48237
RightFoot  12.145 -10.404 47.776
RightToes  2.32829e-010 0 -3.6325e-017
Spine  13.2101 1.38554 8.09629
Spine1  12.8654 2.92784 -2.39429
HEad  -16.0631 9.1954 -8.40143
LeftShoulder1  0.785925 0.545277 -20.0765
LeftArm  21.2589 11.1995 -52.5286
LeftForeArm  54.5386 -77.9311 -57.8283
LeftHand  -1.05186 -3.2642 14.3115
RightShoulder  0.593167 -0.387438 11.9998
RightArm  -7.2665 -4.09395 43.2917
RightForeArm  49.2398 77.5341 56.5892
RightHand  -1.08284 4.12386 -13.4282
LeftUpLeg  -30.6986 1.72816 14.6298
LeftLeg  49.1561 2.84401 3.97041
LeftFoot  -17.0898 -1.0924 -23.5019
LeftToes  -5.54824e-011 -8.71001e-011 8.3852e-012
267
root  15.1357 34.5399 20.246 -174.703 -1.83636 176.475
RightUpLeg  -8.93768 -19.6196 -36.3823
RightLeg  4.12033 -3.77063 -5.07855
RightFoot  22.9596 -13.6911 43.1788
RightToes  2.32829e-010 0 -3.6325e-017
Spine  12.9832 1.2504 2.49617
Spine1  14.3291 0.759327 1.97662
HEad  -17.8668 10.9492 -8.52865
LeftShoulder1  0.736801 0.702172 -19.8053
LeftArm  20.9216 9.53173 -54.3321
LeftForeArm  54.8446 -78.0832 -59.6772
LeftHand  -1.18757 -3.64229 15.451
RightShoulder  0.829828 0.43126 14.3146
RightArm  -7.63662 -12.5364 46.7872
RightForeArm  60.795 78.8126 69.9928
RightHand  -1.0701 4.13057 -13.2651
LeftUpLeg  -30.176 3.39906 13.5146
LeftLeg  50.3447 4.60023 6.38672
LeftFoot  -18.8931 -1.24099 -20.331
LeftToes  -5.54824e-011 -8.71001e-011 8.3852e-012
268
root  13.9296 34.5265 20.5397 -176.193 -0.918797 177.238
RightUpLeg  -7.11246 -22.7898 -36.2139
RightLeg  -0.0553736 -7.85761 -4.56101
RightFoot  31.7704 -14.2212 35.6199
RightToes  2.32829e-010 0 -3.6325e-017
Spine  13.466 1.00958 -3.17053
Spine1  16.1119 -1.46484 5.53622
HEad  -18.6924 12.4151 -8.0189
LeftShoulder1  0.917046 0.0363214 -19.9282
LeftArm  21.3714 5.27101 -54.316
LeftForeArm  50.0974 -77.5305 -55.9903
LeftHand  -1.42618 -3.98847 17.8048
RightShoulder  0.937819 0.734702 15.4417
RightArm  -8.39173 -19.3586 50.8413
RightForeArm  74.3203 79.4229 83.2512
RightHand  -0.998548 4.18676 -12.3316
LeftUpLeg  -29.5487 3.07864 12.0803
LeftLeg  51.9895 5.1818 7.55915
LeftFoot  -21.1316 -1.41404 -17.8472
LeftToes  -5.54824e-011 -8.71001e-011 8.3852e-012
269
root  12.6817 34.4523 20.93 -178.005 0.461574 177.324
RightUpLeg  -7.06699 -22.2175 -36.4056
RightLeg  1.07455 -11.3108 -4.39163
RightFoot  32.4706 -11.3433 28.239
RightToes  2.32829e-010 0 -3.6325e-017
Spine  14.4558 1.0709 -7.5836
Spine1  17.707 -2.87586 7.52274
HEad  -18.6505 13.6803 -7.58872
LeftShoulder1  1.33828 -1.48372 -20.3959
LeftArm  21.872 -0.757618 -53.3288
LeftForeArm  39.5704 -75.6889 -46.2414
LeftHand  -1.70615 -3.7833 21.649
RightShoulder  0.906094 0.473973 16.1478
RightArm  -9.05615 -23.3626 54.7555
RightForeArm  84.8445 79.4847 93.5474
RightHand  -0.92758 4.1451 -11.532
LeftUpLeg  -28.7055 2.983 9.91269
LeftLeg  53.9936 5.72102 8.90629
LeftFoot  -23.0771 -1.50691 -15.9104
LeftToes  -5.54824e-011 -8.71001e-011 8.3852e-012
270
root  11.4624 34.5084 21.3428 -179.242 2.81059 177.431
RightUpLeg  -10.067 -13.3466 -35.6292
RightLeg  8.33984 -14.056 -6.24281
RightFoot  24.1461 -7.4814 23.567
RightToes  2.32829e-010 0 -3.6325e-017
Spine  15.1434 1.20969 -10.1597
Spine1  18.9834 -3.43483 7.91922
HEad  -18.8085 14.8486 -7.55193
LeftShoulder1  1.6407 -2.71573 -19.9243
LeftArm  21.7736 -6.3038 -53.5477
LeftForeArm  30.7456 -73.416 -38.3231
LeftHand  -1.91373 -3.26507 25.5678
RightShoulder  0.856615 0.284667 15.9704
RightArm  -8.40019 -24.6181 58.1344
RightForeArm  91.7593 79.1648 102.466
RightHand  -0.952148 4.05496 -11.9297
LeftUpLeg  -27.9984 4.56761 7.78323
LeftLeg  55.2622 6.43181 10.3881
LeftFoot  -24.158 -1.43199 -13.9719
LeftToes  -5.54824e-011 -8.71001e-011 8.3852e-012
